<svg xmlns="http://www.w3.org/2000/svg" data-name="Layer 1" viewBox="0 0 512 640" x="0px" y="0px"><title>Business estimation</title><path d="M252.07,325.25a125.31,125.31,0,0,1,82.54-54.32v-3.46H252.07Z"/><path d="M239.51,338.93H155.78V400h76.83q-.31-4.35-.32-8.78a119.45,119.45,0,0,1,7.22-41Z"/><path d="M155.78,470.28h79.63V436.84a6.27,6.27,0,0,1,3.7-5.72,120.1,120.1,0,0,1-4.92-18.54H155.78Z"/><rect x="252.07" y="195.58" width="82.54" height="59.33"/><rect x="71.08" y="51.19" width="262.45" height="95.35"/><rect x="155.78" y="267.47" width="83.73" height="58.9"/><path d="M243.83,482.85a6.19,6.19,0,0,1-4.27,0H62.85a8.47,8.47,0,0,1-8.45-8.47V191.48A8.47,8.47,0,0,1,62.85,183H338.72a8.48,8.48,0,0,1,8.46,8.47v77.83c3.31-.26,6.66-.4,10-.4,2.11,0,4.2.06,6.28.16V26.55A15.5,15.5,0,0,0,348.08,11H57.83A15.51,15.51,0,0,0,42.41,26.55V485.22a15.5,15.5,0,0,0,15.42,15.55H301.65a125.55,125.55,0,0,1-27.12-17.92ZM58.51,47a8.39,8.39,0,0,1,8.38-8.38H337.71A8.39,8.39,0,0,1,346.09,47V150.73a8.39,8.39,0,0,1-8.38,8.37H66.89a8.39,8.39,0,0,1-8.38-8.37Z"/><rect x="66.96" y="338.93" width="76.25" height="61.08"/><rect x="66.96" y="267.47" width="76.25" height="58.9"/><rect x="155.78" y="195.58" width="83.73" height="59.33"/><path d="M248,470.28h14a122.58,122.58,0,0,1-14-19.75Z"/><rect x="66.96" y="195.58" width="76.25" height="59.33"/><path d="M357.22,281.48c-62,0-112.37,49.24-112.37,109.76S295.26,501,357.22,501s112.37-49.24,112.37-109.76S419.18,281.48,357.22,281.48Zm33.85,81a6.29,6.29,0,0,1-7.57-4.61c-.19-.75-4.46-16.43-23.1-17.18-6.79-.28-12.1,1.4-15.78,5-4.61,4.49-6.18,11.49-6.1,16.54.1,7.12,5.24,15.29,16.5,17.47l1.42.28,3.43.66c1.08.21,2.38.59,3.72,1a17.87,17.87,0,0,1,1.9.68l2.05.78a18.78,18.78,0,0,1,1.84.82c1.3.66,1.78.93,2.68,1.45l1.16.67.61.38c4.64,2.81,19.48,13.06,20.18,29.79.42,9.87-2.61,18.34-8.74,24.48-5.6,5.59-13,8.57-19.95,9.82v8a6.29,6.29,0,0,1-12.57,0v-7.64c-12.57-1.87-28.71-11.74-30.53-28a6.28,6.28,0,0,1,12.49-1.4c.66,5.85,8.47,16.59,21.7,17.14,6.28.26,14.89-1.74,20-6.83,3.69-3.69,5.35-8.61,5.08-15.06-.45-10.79-11.82-18.18-14.1-19.55l-.23-.15h0l-.26-.16-1.12-.65c-.76-.44-1-.59-2.05-1.12-.21-.1-.42-.2-.64-.28L360.9,394l-.25-.1a6.63,6.63,0,0,0-.67-.25c-.67-.2-1.92-.57-2.46-.67l-3.49-.68-1.41-.28c-15.49-3-26.45-15.18-26.66-29.62-.06-3.72.5-16.56,9.89-25.72a30,30,0,0,1,16.9-8.12v-9a6.29,6.29,0,0,1,12.57,0v8.94a36.45,36.45,0,0,1,30.39,26.38A6.28,6.28,0,0,1,391.07,362.5Z"/><rect x="66.96" y="412.58" width="76.25" height="57.7"/><text x="0" y="527" fill="#000000" font-size="5px" font-weight="bold" font-family="'Helvetica Neue', Helvetica, Arial-Unicode, Arial, Sans-serif">Created by Iconsparks</text><text x="0" y="532" fill="#000000" font-size="5px" font-weight="bold" font-family="'Helvetica Neue', Helvetica, Arial-Unicode, Arial, Sans-serif">from the Noun Project</text></svg>